<svg width="9" height="15" viewBox="0 0 9 15" fill="none" xmlns="http://www.w3.org/2000/svg">
<path d="M8.02357 12.9508C8.21175 13.1387 8.31747 13.3936 8.31747 13.6593C8.31747 13.9251 8.21176 14.18 8.02358 14.3679C7.8354 14.5558 7.58018 14.6614 7.31405 14.6614C7.04792 14.6614 6.7927 14.5558 6.60452 14.3679L0.585157 8.35684C0.402251 8.1743 0.297009 7.92827 0.2914 7.6701C0.285792 7.41193 0.380249 7.16157 0.555055 6.97128L6.07251 0.960223C6.25221 0.764232 6.50251 0.647555 6.76835 0.63586C7.03419 0.624164 7.2938 0.718408 7.49006 0.897859C7.68632 1.07731 7.80316 1.32727 7.81488 1.59275C7.82659 1.85822 7.73222 2.11747 7.55252 2.31346L3.17121 7.087C3.04015 7.22973 2.96934 7.41749 2.97354 7.61111C2.97775 7.80472 3.05665 7.98923 3.19379 8.12616L8.02433 12.95L8.02357 12.9508Z" fill="white"/>
</svg>
