<svg width="231" height="43" viewBox="0 0 231 43" fill="none" xmlns="http://www.w3.org/2000/svg">
<path d="M144.441 9.46875V18H143.316V10.3945H140.258L140.105 13.7754C140.047 14.9082 139.93 15.7598 139.754 16.3301C139.582 16.9004 139.328 17.3203 138.992 17.5898C138.656 17.8555 138.207 17.9922 137.645 18H137.275V17.0801L137.51 17.0684C137.873 17.041 138.152 16.9238 138.348 16.7168C138.543 16.5059 138.691 16.1719 138.793 15.7148C138.895 15.2578 138.967 14.5547 139.01 13.6055L139.186 9.46875H144.441ZM146.029 14.7715C146.029 14.1504 146.15 13.5918 146.393 13.0957C146.639 12.5996 146.979 12.2168 147.412 11.9473C147.85 11.6777 148.348 11.543 148.906 11.543C149.77 11.543 150.467 11.8418 150.998 12.4395C151.533 13.0371 151.801 13.832 151.801 14.8242V14.9004C151.801 15.5176 151.682 16.0723 151.443 16.5645C151.209 17.0527 150.871 17.4336 150.43 17.707C149.992 17.9805 149.488 18.1172 148.918 18.1172C148.059 18.1172 147.361 17.8184 146.826 17.2207C146.295 16.623 146.029 15.832 146.029 14.8477V14.7715ZM147.119 14.9004C147.119 15.6035 147.281 16.168 147.605 16.5938C147.934 17.0195 148.371 17.2324 148.918 17.2324C149.469 17.2324 149.906 17.0176 150.23 16.5879C150.555 16.1543 150.717 15.5488 150.717 14.7715C150.717 14.0762 150.551 13.5137 150.219 13.084C149.891 12.6504 149.453 12.4336 148.906 12.4336C148.371 12.4336 147.939 12.6465 147.611 13.0723C147.283 13.498 147.119 14.1074 147.119 14.9004ZM157.256 12.5566H154.332V18H153.242V11.6602H157.256V12.5566ZM162.301 11.6602H163.385V18H162.301V13.377L159.377 18H158.293V11.6602H159.377V16.2891L162.301 11.6602ZM167.668 17.2324C168.055 17.2324 168.393 17.1152 168.682 16.8809C168.971 16.6465 169.131 16.3535 169.162 16.002H170.188C170.168 16.3652 170.043 16.7109 169.812 17.0391C169.582 17.3672 169.273 17.6289 168.887 17.8242C168.504 18.0195 168.098 18.1172 167.668 18.1172C166.805 18.1172 166.117 17.8301 165.605 17.2559C165.098 16.6777 164.844 15.8887 164.844 14.8887V14.707C164.844 14.0898 164.957 13.541 165.184 13.0605C165.41 12.5801 165.734 12.207 166.156 11.9414C166.582 11.6758 167.084 11.543 167.662 11.543C168.373 11.543 168.963 11.7559 169.432 12.1816C169.904 12.6074 170.156 13.1602 170.188 13.8398H169.162C169.131 13.4297 168.975 13.0938 168.693 12.832C168.416 12.5664 168.072 12.4336 167.662 12.4336C167.111 12.4336 166.684 12.6328 166.379 13.0312C166.078 13.4258 165.928 13.998 165.928 14.748V14.9531C165.928 15.6836 166.078 16.2461 166.379 16.6406C166.68 17.0352 167.109 17.2324 167.668 17.2324ZM176.117 12.5391H173.99V18H172.906V12.5391H170.82V11.6602H176.117V12.5391ZM181.273 11.6602H182.357V18H181.273V13.377L178.35 18H177.266V11.6602H178.35V16.2891L181.273 11.6602ZM186.072 15.2988H185.281V18H184.191V11.6602H185.281V14.3438H185.99L188.123 11.6602H189.436L186.928 14.707L189.646 18H188.27L186.072 15.2988ZM194.492 18C194.43 17.875 194.379 17.6523 194.34 17.332C193.836 17.8555 193.234 18.1172 192.535 18.1172C191.91 18.1172 191.396 17.9414 190.994 17.5898C190.596 17.2344 190.396 16.7852 190.396 16.2422C190.396 15.582 190.646 15.0703 191.146 14.707C191.65 14.3398 192.357 14.1562 193.268 14.1562H194.322V13.6582C194.322 13.2793 194.209 12.9785 193.982 12.7559C193.756 12.5293 193.422 12.416 192.98 12.416C192.594 12.416 192.27 12.5137 192.008 12.709C191.746 12.9043 191.615 13.1406 191.615 13.418H190.525C190.525 13.1016 190.637 12.7969 190.859 12.5039C191.086 12.207 191.391 11.9727 191.773 11.8008C192.16 11.6289 192.584 11.543 193.045 11.543C193.775 11.543 194.348 11.7266 194.762 12.0938C195.176 12.457 195.391 12.959 195.406 13.5996V16.5176C195.406 17.0996 195.48 17.5625 195.629 17.9062V18H194.492ZM192.693 17.1738C193.033 17.1738 193.355 17.0859 193.66 16.9102C193.965 16.7344 194.186 16.5059 194.322 16.2246V14.9238H193.473C192.145 14.9238 191.48 15.3125 191.48 16.0898C191.48 16.4297 191.594 16.6953 191.82 16.8867C192.047 17.0781 192.338 17.1738 192.693 17.1738ZM204.184 11.6602H205.268V18H204.184V13.377L201.26 18H200.176V11.6602H201.26V16.2891L204.184 11.6602ZM140.047 26.4336C139.66 26.4336 139.324 26.5566 139.039 26.8027C138.758 27.0488 138.617 27.3398 138.617 27.6758H137.586C137.586 27.3125 137.701 26.9648 137.932 26.6328C138.162 26.3008 138.469 26.0371 138.852 25.8418C139.234 25.6426 139.633 25.543 140.047 25.543C140.871 25.543 141.537 25.8418 142.045 26.4395C142.557 27.0332 142.812 27.8105 142.812 28.7715V28.9531C142.812 29.5469 142.695 30.0898 142.461 30.582C142.23 31.0703 141.904 31.4492 141.482 31.7188C141.064 31.9844 140.586 32.1172 140.047 32.1172C139.344 32.1172 138.758 31.8984 138.289 31.4609C137.82 31.0234 137.586 30.4785 137.586 29.8262H138.617C138.617 30.2246 138.756 30.5605 139.033 30.834C139.311 31.1035 139.648 31.2383 140.047 31.2383C140.512 31.2383 140.895 31.0586 141.195 30.6992C141.496 30.3398 141.67 29.8457 141.717 29.2168H139.338V28.3262H141.705C141.65 27.7559 141.477 27.2988 141.184 26.9551C140.891 26.6074 140.512 26.4336 140.047 26.4336ZM146.252 29.2988H145.461V32H144.371V25.6602H145.461V28.3438H146.17L148.303 25.6602H149.615L147.107 28.707L149.826 32H148.449L146.252 29.2988ZM153.207 31.2324C153.594 31.2324 153.932 31.1152 154.221 30.8809C154.51 30.6465 154.67 30.3535 154.701 30.002H155.727C155.707 30.3652 155.582 30.7109 155.352 31.0391C155.121 31.3672 154.812 31.6289 154.426 31.8242C154.043 32.0195 153.637 32.1172 153.207 32.1172C152.344 32.1172 151.656 31.8301 151.145 31.2559C150.637 30.6777 150.383 29.8887 150.383 28.8887V28.707C150.383 28.0898 150.496 27.541 150.723 27.0605C150.949 26.5801 151.273 26.207 151.695 25.9414C152.121 25.6758 152.623 25.543 153.201 25.543C153.912 25.543 154.502 25.7559 154.971 26.1816C155.443 26.6074 155.695 27.1602 155.727 27.8398H154.701C154.67 27.4297 154.514 27.0938 154.232 26.832C153.955 26.5664 153.611 26.4336 153.201 26.4336C152.65 26.4336 152.223 26.6328 151.918 27.0312C151.617 27.4258 151.467 27.998 151.467 28.748V28.9531C151.467 29.6836 151.617 30.2461 151.918 30.6406C152.219 31.0352 152.648 31.2324 153.207 31.2324ZM162.131 32H161.047V26.5566H158.129V32H157.039V25.6602H162.131V32ZM166.502 32.1172C165.643 32.1172 164.943 31.8359 164.404 31.2734C163.865 30.707 163.596 29.9512 163.596 29.0059V28.8066C163.596 28.1777 163.715 27.6172 163.953 27.125C164.195 26.6289 164.531 26.2422 164.961 25.9648C165.395 25.6836 165.863 25.543 166.367 25.543C167.191 25.543 167.832 25.8145 168.289 26.3574C168.746 26.9004 168.975 27.6777 168.975 28.6895V29.1406H164.68C164.695 29.7656 164.877 30.2715 165.225 30.6582C165.576 31.041 166.021 31.2324 166.561 31.2324C166.943 31.2324 167.268 31.1543 167.533 30.998C167.799 30.8418 168.031 30.6348 168.23 30.377L168.893 30.8926C168.361 31.709 167.564 32.1172 166.502 32.1172ZM166.367 26.4336C165.93 26.4336 165.562 26.5938 165.266 26.9141C164.969 27.2305 164.785 27.6758 164.715 28.25H167.891V28.168C167.859 27.6172 167.711 27.1914 167.445 26.8906C167.18 26.5859 166.82 26.4336 166.367 26.4336ZM170.182 31.1152L170.557 30.6523C170.979 30.1055 171.219 29.2852 171.277 28.1914L171.377 25.6602H175.461V31.1152H176.275V33.8633H175.191V32H170.768V33.8633H169.684L169.689 31.1152H170.182ZM171.465 31.1152H174.377V26.6621H172.426L172.361 28.1738C172.295 29.4355 171.996 30.416 171.465 31.1152ZM181.578 25.6602H182.662V32H181.578V27.377L178.654 32H177.57V25.6602H178.654V30.2891L181.578 25.6602ZM189.758 28.9004C189.758 29.8652 189.537 30.6426 189.096 31.2324C188.654 31.8223 188.057 32.1172 187.303 32.1172C186.533 32.1172 185.928 31.873 185.486 31.3848V34.4375H184.402V25.6602H185.393L185.445 26.3633C185.887 25.8164 186.5 25.543 187.285 25.543C188.047 25.543 188.648 25.8301 189.09 26.4043C189.535 26.9785 189.758 27.7773 189.758 28.8008V28.9004ZM188.674 28.7773C188.674 28.0625 188.521 27.498 188.217 27.084C187.912 26.6699 187.494 26.4629 186.963 26.4629C186.307 26.4629 185.814 26.7539 185.486 27.3359V30.3652C185.811 30.9434 186.307 31.2324 186.975 31.2324C187.494 31.2324 187.906 31.0273 188.211 30.6172C188.52 30.2031 188.674 29.5898 188.674 28.7773ZM190.854 28.7715C190.854 28.1504 190.975 27.5918 191.217 27.0957C191.463 26.5996 191.803 26.2168 192.236 25.9473C192.674 25.6777 193.172 25.543 193.73 25.543C194.594 25.543 195.291 25.8418 195.822 26.4395C196.357 27.0371 196.625 27.832 196.625 28.8242V28.9004C196.625 29.5176 196.506 30.0723 196.268 30.5645C196.033 31.0527 195.695 31.4336 195.254 31.707C194.816 31.9805 194.312 32.1172 193.742 32.1172C192.883 32.1172 192.186 31.8184 191.65 31.2207C191.119 30.623 190.854 29.832 190.854 28.8477V28.7715ZM191.943 28.9004C191.943 29.6035 192.105 30.168 192.43 30.5938C192.758 31.0195 193.195 31.2324 193.742 31.2324C194.293 31.2324 194.73 31.0176 195.055 30.5879C195.379 30.1543 195.541 29.5488 195.541 28.7715C195.541 28.0762 195.375 27.5137 195.043 27.084C194.715 26.6504 194.277 26.4336 193.73 26.4336C193.195 26.4336 192.764 26.6465 192.436 27.0723C192.107 27.498 191.943 28.1074 191.943 28.9004ZM198.084 32V25.6602H200.557C201.4 25.6602 202.047 25.8086 202.496 26.1055C202.949 26.3984 203.176 26.8301 203.176 27.4004C203.176 27.6934 203.088 27.959 202.912 28.1973C202.736 28.4316 202.477 28.6113 202.133 28.7363C202.516 28.8262 202.822 29.002 203.053 29.2637C203.287 29.5254 203.404 29.8379 203.404 30.2012C203.404 30.7832 203.189 31.2285 202.76 31.5371C202.334 31.8457 201.73 32 200.949 32H198.084ZM199.168 29.2168V31.127H200.961C201.414 31.127 201.752 31.043 201.975 30.875C202.201 30.707 202.314 30.4707 202.314 30.166C202.314 29.5332 201.85 29.2168 200.92 29.2168H199.168ZM199.168 28.3496H200.568C201.584 28.3496 202.092 28.0527 202.092 27.459C202.092 26.8652 201.611 26.5586 200.65 26.5391H199.168V28.3496ZM208.754 32C208.691 31.875 208.641 31.6523 208.602 31.332C208.098 31.8555 207.496 32.1172 206.797 32.1172C206.172 32.1172 205.658 31.9414 205.256 31.5898C204.857 31.2344 204.658 30.7852 204.658 30.2422C204.658 29.582 204.908 29.0703 205.408 28.707C205.912 28.3398 206.619 28.1562 207.529 28.1562H208.584V27.6582C208.584 27.2793 208.471 26.9785 208.244 26.7559C208.018 26.5293 207.684 26.416 207.242 26.416C206.855 26.416 206.531 26.5137 206.27 26.709C206.008 26.9043 205.877 27.1406 205.877 27.418H204.787C204.787 27.1016 204.898 26.7969 205.121 26.5039C205.348 26.207 205.652 25.9727 206.035 25.8008C206.422 25.6289 206.846 25.543 207.307 25.543C208.037 25.543 208.609 25.7266 209.023 26.0938C209.438 26.457 209.652 26.959 209.668 27.5996V30.5176C209.668 31.0996 209.742 31.5625 209.891 31.9062V32H208.754ZM206.955 31.1738C207.295 31.1738 207.617 31.0859 207.922 30.9102C208.227 30.7344 208.447 30.5059 208.584 30.2246V28.9238H207.734C206.406 28.9238 205.742 29.3125 205.742 30.0898C205.742 30.4297 205.855 30.6953 206.082 30.8867C206.309 31.0781 206.6 31.1738 206.955 31.1738ZM216.547 32H215.463V29.293H212.551V32H211.461V25.6602H212.551V28.4082H215.463V25.6602H216.547V32ZM222.395 25.6602H223.479V32H222.395V27.377L219.471 32H218.387V25.6602H219.471V30.2891L222.395 25.6602ZM227.85 32.1172C226.99 32.1172 226.291 31.8359 225.752 31.2734C225.213 30.707 224.943 29.9512 224.943 29.0059V28.8066C224.943 28.1777 225.062 27.6172 225.301 27.125C225.543 26.6289 225.879 26.2422 226.309 25.9648C226.742 25.6836 227.211 25.543 227.715 25.543C228.539 25.543 229.18 25.8145 229.637 26.3574C230.094 26.9004 230.322 27.6777 230.322 28.6895V29.1406H226.027C226.043 29.7656 226.225 30.2715 226.572 30.6582C226.924 31.041 227.369 31.2324 227.908 31.2324C228.291 31.2324 228.615 31.1543 228.881 30.998C229.146 30.8418 229.379 30.6348 229.578 30.377L230.24 30.8926C229.709 31.709 228.912 32.1172 227.85 32.1172ZM227.715 26.4336C227.277 26.4336 226.91 26.5938 226.613 26.9141C226.316 27.2305 226.133 27.6758 226.062 28.25H229.238V28.168C229.207 27.6172 229.059 27.1914 228.793 26.8906C228.527 26.5859 228.168 26.4336 227.715 26.4336Z" fill="white"/>
<rect x="122" width="2" height="43" fill="#F3CF55"/>
<path d="M19.3203 24.875H15.5625L14.9062 27H11.9766L16.1484 15.625H18.7266L22.9297 27H19.9844L19.3203 24.875ZM16.2188 22.7578H18.6641L17.4375 18.8125L16.2188 22.7578ZM23.7656 27V15.625H27.8516C29.3151 15.625 30.4271 15.8932 31.1875 16.4297C31.9531 16.9661 32.3359 17.7448 32.3359 18.7656C32.3359 19.3542 32.2005 19.8568 31.9297 20.2734C31.6589 20.6901 31.2604 20.9974 30.7344 21.1953C31.3281 21.3516 31.7839 21.6432 32.1016 22.0703C32.4193 22.4974 32.5781 23.0182 32.5781 23.6328C32.5781 24.7474 32.224 25.5859 31.5156 26.1484C30.8125 26.7057 29.7682 26.9896 28.3828 27H23.7656ZM26.5078 22.1641V24.8906H28.3047C28.7995 24.8906 29.1797 24.7786 29.4453 24.5547C29.7109 24.3255 29.8438 24.0052 29.8438 23.5938C29.8438 22.6458 29.3724 22.1693 28.4297 22.1641H26.5078ZM26.5078 20.3672H27.9375C28.5365 20.362 28.9635 20.2526 29.2188 20.0391C29.474 19.8255 29.6016 19.5104 29.6016 19.0938C29.6016 18.6146 29.4635 18.2708 29.1875 18.0625C28.9115 17.849 28.4661 17.7422 27.8516 17.7422H26.5078V20.3672ZM42.8047 17.7422H39.3906V27H36.6484V17.7422H33.2969V15.625H42.8047V17.7422ZM53.3828 21.5469C53.3828 22.6562 53.1771 23.638 52.7656 24.4922C52.3542 25.3464 51.7682 26.0052 51.0078 26.4688C50.2526 26.9271 49.3906 27.1562 48.4219 27.1562C47.4531 27.1562 46.5938 26.9349 45.8438 26.4922C45.0938 26.0443 44.5078 25.4062 44.0859 24.5781C43.6693 23.75 43.4505 22.7995 43.4297 21.7266V21.0859C43.4297 19.9714 43.6328 18.9896 44.0391 18.1406C44.4505 17.2865 45.0365 16.6276 45.7969 16.1641C46.5625 15.7005 47.4323 15.4688 48.4062 15.4688C49.3698 15.4688 50.2292 15.6979 50.9844 16.1562C51.7396 16.6146 52.3255 17.2682 52.7422 18.1172C53.1641 18.9609 53.3776 19.9297 53.3828 21.0234V21.5469ZM50.5938 21.0703C50.5938 19.9401 50.4036 19.0833 50.0234 18.5C49.6484 17.9115 49.1094 17.6172 48.4062 17.6172C47.0312 17.6172 46.3047 18.6484 46.2266 20.7109L46.2188 21.5469C46.2188 22.6615 46.4036 23.5182 46.7734 24.1172C47.1432 24.7161 47.6927 25.0156 48.4219 25.0156C49.1146 25.0156 49.6484 24.7214 50.0234 24.1328C50.3984 23.5443 50.5885 22.6979 50.5938 21.5938V21.0703ZM64 23.1484C63.9635 23.9401 63.75 24.6406 63.3594 25.25C62.9688 25.8542 62.4193 26.3229 61.7109 26.6562C61.0078 26.9896 60.2031 27.1562 59.2969 27.1562C57.8021 27.1562 56.625 26.6693 55.7656 25.6953C54.9062 24.7214 54.4766 23.3464 54.4766 21.5703V21.0078C54.4766 19.8932 54.6693 18.9193 55.0547 18.0859C55.4453 17.2474 56.0052 16.6016 56.7344 16.1484C57.4635 15.6901 58.3073 15.4609 59.2656 15.4609C60.6458 15.4609 61.7552 15.8255 62.5938 16.5547C63.4323 17.2786 63.9089 18.2786 64.0234 19.5547H61.2891C61.2682 18.862 61.0938 18.3646 60.7656 18.0625C60.4375 17.7604 59.9375 17.6094 59.2656 17.6094C58.5833 17.6094 58.0833 17.8646 57.7656 18.375C57.4479 18.8854 57.2812 19.7005 57.2656 20.8203V21.625C57.2656 22.8385 57.4167 23.7057 57.7188 24.2266C58.026 24.7474 58.5521 25.0078 59.2969 25.0078C59.9271 25.0078 60.4089 24.8594 60.7422 24.5625C61.0755 24.2656 61.2526 23.7943 61.2734 23.1484H64ZM72.4844 16.5938C73.9635 16.5938 75.1406 17.0365 76.0156 17.9219C76.8958 18.8021 77.3359 19.9557 77.3359 21.3828C77.3359 22.0807 77.2188 22.7161 76.9844 23.2891C76.7552 23.8568 76.4323 24.3411 76.0156 24.7422C75.1354 25.6016 73.9583 26.0312 72.4844 26.0312V27.4688H69.8438V26.0312C68.349 26.0312 67.1615 25.6016 66.2812 24.7422C65.401 23.8828 64.9609 22.7682 64.9609 21.3984C64.9609 20.6745 65.0781 20.0182 65.3125 19.4297C65.5469 18.8411 65.875 18.3385 66.2969 17.9219C67.1823 17.0365 68.3646 16.5938 69.8438 16.5938V15.1562H72.4844V16.5938ZM69.7422 18.7969C69.0599 18.7969 68.5208 19.026 68.125 19.4844C67.7344 19.9427 67.5391 20.5807 67.5391 21.3984C67.5391 22.1484 67.737 22.7422 68.1328 23.1797C68.5286 23.612 69.099 23.8281 69.8438 23.8281V18.7969H69.7422ZM72.4844 18.7969V23.8281H72.6016C73.2526 23.8281 73.7734 23.6146 74.1641 23.1875C74.5599 22.7552 74.7578 22.1536 74.7578 21.3828C74.7578 20.5807 74.5651 19.9505 74.1797 19.4922C73.7995 19.0286 73.2344 18.7969 72.4844 18.7969ZM85.7578 22.1797H81.4453V24.8906H86.5391V27H78.7031V15.625H86.5547V17.7422H81.4453V20.1406H85.7578V22.1797ZM90.3984 23.1406V27H87.6562V15.625H92.1953C93.0651 15.625 93.8333 15.7865 94.5 16.1094C95.1719 16.4271 95.6901 16.8828 96.0547 17.4766C96.4245 18.0651 96.6094 18.7344 96.6094 19.4844C96.6094 20.5938 96.2109 21.4818 95.4141 22.1484C94.6224 22.8099 93.5339 23.1406 92.1484 23.1406H90.3984ZM90.3984 21.0234H92.1953C92.7266 21.0234 93.1302 20.8906 93.4062 20.625C93.6875 20.3594 93.8281 19.9844 93.8281 19.5C93.8281 18.9688 93.6849 18.5443 93.3984 18.2266C93.112 17.9089 92.7214 17.7474 92.2266 17.7422H90.3984V21.0234ZM103.148 24.875H99.3906L98.7344 27H95.8047L99.9766 15.625H102.555L106.758 27H103.812L103.148 24.875ZM100.047 22.7578H102.492L101.266 18.8125L100.047 22.7578Z" fill="white"/>
<path d="M0.585069 15.3455C0.396889 15.1576 0.291171 14.9027 0.29117 14.6369C0.291169 14.3712 0.396885 14.1163 0.585063 13.9284C0.773242 13.7404 1.02847 13.6349 1.29459 13.6349C1.56072 13.6349 1.81594 13.7404 2.00412 13.9284L8.02349 19.9394C8.20639 20.122 8.31163 20.368 8.31724 20.6262C8.32285 20.8843 8.22839 21.1347 8.05359 21.325L2.53613 27.336C2.35644 27.532 2.10613 27.6487 1.84029 27.6604C1.57445 27.6721 1.31484 27.5779 1.11858 27.3984C0.922318 27.219 0.805479 26.969 0.793766 26.7035C0.782053 26.438 0.876426 26.1788 1.05612 25.9828L5.43743 21.2093C5.56849 21.0665 5.63931 20.8788 5.6351 20.6852C5.63089 20.4915 5.55199 20.307 5.41486 20.1701L0.584317 15.3462L0.585069 15.3455Z" fill="#F3CF55"/>
</svg>
