<svg width="36" height="36" viewBox="0 0 36 36" fill="none" xmlns="http://www.w3.org/2000/svg">
<path d="M35.9999 18.0479C35.9999 28.0026 27.9425 36.0239 17.9399 36.0119C7.99723 35.9999 -0.0121071 27.9425 -9.9049e-05 17.9399C0.011909 7.99722 8.08129 -0.0121166 18.084 -0.000108586C28.0026 0.0118994 36.0119 8.08128 35.9999 18.0479ZM24.8805 7.31277C20.7017 4.29876 13.2447 4.11864 8.42952 9.55827C3.85447 14.7097 4.8031 21.6503 7.36081 24.8685C13.1847 19.0206 19.0206 13.1847 24.8805 7.31277ZM11.1073 28.663C15.226 31.653 22.623 31.8932 27.4622 26.5736C32.1213 21.4582 31.2567 14.4455 28.663 11.1433C22.8271 16.9672 16.9792 22.8031 11.1073 28.663Z" fill="url(#paint0_linear_4_51)"/>
<defs>
<linearGradient id="paint0_linear_4_51" x1="17.9999" y1="-0.00012207" x2="17.9999" y2="36.0119" gradientUnits="userSpaceOnUse">
<stop stop-color="#DD3B00"/>
<stop offset="1" stop-color="#EE4C11" stop-opacity="0.71"/>
</linearGradient>
</defs>
</svg>
